<svg xmlns="http://www.w3.org/2000/svg" xmlns:xlink="http://www.w3.org/1999/xlink" width="1920" zoomAndPan="magnify" viewBox="0 0 1440 149.999998" height="200" preserveAspectRatio="xMidYMid meet" version="1.0"><defs><filter x="0%" y="0%" width="100%" height="100%" id="805e952a67"><feColorMatrix values="0 0 0 0 1 0 0 0 0 1 0 0 0 0 1 0 0 0 1 0" color-interpolation-filters="sRGB"/></filter><mask id="e301024e26"><g filter="url(#805e952a67)"><rect x="-144" width="1728" fill="#000000" y="-15" height="179.999997" fill-opacity="0.81"/></g></mask><clipPath id="2c7d8f2893"><path d="M 0.28125 0.578125 L 419.800781 0.578125 L 419.800781 74.761719 L 0.28125 74.761719 Z M 0.28125 0.578125 " clip-rule="nonzero"/></clipPath><clipPath id="24ac2d876b"><rect x="0" width="499" y="0" height="75"/></clipPath><mask id="63c46c2751"><g filter="url(#805e952a67)"><rect x="-144" width="1728" fill="#000000" y="-15" height="179.999997" fill-opacity="0.81"/></g></mask><clipPath id="d12e355e03"><path d="M 8.4375 0.578125 L 473 0.578125 L 473 14.761719 L 8.4375 14.761719 Z M 8.4375 0.578125 " clip-rule="nonzero"/></clipPath><clipPath id="a680f2fe40"><rect x="0" width="474" y="0" height="15"/></clipPath></defs><g mask="url(#e301024e26)"><g transform="matrix(1, 0, 0, 1, 263, 39)"><g clip-path="url(#24ac2d876b)"><g clip-path="url(#2c7d8f2893)"><path fill="#737373" d="M 495.488281 62.277344 L 427.535156 2.332031 C 426.25 1.199219 424.601562 0.578125 422.898438 0.578125 L 7.398438 0.578125 C 3.523438 0.578125 0.390625 3.714844 0.390625 7.589844 C 0.390625 11.464844 3.523438 14.597656 7.398438 14.597656 L 420.253906 14.597656 L 486.214844 72.789062 C 487.546875 73.960938 489.199219 74.542969 490.851562 74.542969 C 492.792969 74.542969 494.726562 73.742188 496.109375 72.167969 C 498.671875 69.265625 498.390625 64.839844 495.488281 62.277344 Z M 495.488281 62.277344 " fill-opacity="1" fill-rule="nonzero"/></g></g></g></g><g mask="url(#63c46c2751)"><g transform="matrix(1, 0, 0, 1, 674, 39)"><g clip-path="url(#a680f2fe40)"><g clip-path="url(#d12e355e03)"><path fill="#737373" d="M 465.964844 0.578125 L 8.355469 0.578125 C 4.480469 0.578125 1.34375 3.714844 1.34375 7.589844 C 1.34375 11.464844 4.480469 14.597656 8.355469 14.597656 L 465.964844 14.597656 C 469.839844 14.597656 472.972656 11.464844 472.972656 7.589844 C 472.972656 3.714844 469.839844 0.578125 465.964844 0.578125 Z M 465.964844 0.578125 " fill-opacity="1" fill-rule="nonzero"/></g></g></g></g></svg>