<svg xmlns="http://www.w3.org/2000/svg" xmlns:xlink="http://www.w3.org/1999/xlink" width="1920" zoomAndPan="magnify" viewBox="0 0 1440 149.999998" height="200" preserveAspectRatio="xMidYMid meet" version="1.0"><defs><filter x="0%" y="0%" width="100%" height="100%" id="431bfb52eb"><feColorMatrix values="0 0 0 0 1 0 0 0 0 1 0 0 0 0 1 0 0 0 1 0" color-interpolation-filters="sRGB"/></filter><mask id="644bbe6f89"><g filter="url(#431bfb52eb)"><rect x="-144" width="1728" fill="#000000" y="-15" height="179.999997" fill-opacity="0.81"/></g></mask><clipPath id="1f5352d6e4"><path d="M 509 0.578125 L 981.800781 0.578125 L 981.800781 15 L 509 15 Z M 509 0.578125 " clip-rule="nonzero"/></clipPath><clipPath id="420c80a764"><path d="M 0.441406 0.578125 L 499 0.578125 L 499 74.761719 L 0.441406 74.761719 Z M 0.441406 0.578125 " clip-rule="nonzero"/></clipPath><clipPath id="164b53fea8"><rect x="0" width="982" y="0" height="75"/></clipPath></defs><rect x="-144" width="1728" fill="#ffffff" y="-15" height="179.999997" fill-opacity="1"/><rect x="-144" width="1728" fill="#ffffff" y="-15" height="179.999997" fill-opacity="1"/><g mask="url(#644bbe6f89)"><g transform="matrix(1, 0, 0, 1, 229, 39)"><g clip-path="url(#164b53fea8)"><g clip-path="url(#1f5352d6e4)"><path fill="#737373" d="M 974.445312 0.578125 L 516.835938 0.578125 C 512.960938 0.578125 509.828125 3.714844 509.828125 7.589844 C 509.828125 11.464844 512.960938 14.597656 516.835938 14.597656 L 974.445312 14.597656 C 978.320312 14.597656 981.457031 11.464844 981.457031 7.589844 C 981.457031 3.714844 978.320312 0.578125 974.445312 0.578125 Z M 974.445312 0.578125 " fill-opacity="1" fill-rule="nonzero"/></g><g clip-path="url(#420c80a764)"><path fill="#737373" d="M 495.628906 62.277344 L 427.675781 2.332031 C 426.394531 1.199219 424.742188 0.578125 423.039062 0.578125 L 7.542969 0.578125 C 3.667969 0.578125 0.535156 3.714844 0.535156 7.589844 C 0.535156 11.464844 3.667969 14.597656 7.542969 14.597656 L 420.398438 14.597656 L 486.359375 72.789062 C 487.691406 73.960938 489.34375 74.542969 490.996094 74.542969 C 492.9375 74.542969 494.871094 73.742188 496.25 72.167969 C 498.816406 69.265625 498.535156 64.839844 495.628906 62.277344 Z M 495.628906 62.277344 " fill-opacity="1" fill-rule="nonzero"/></g></g></g></g></svg>